# xmcd
#
# Track frame offsets:
#	150
#	12982
#	25065
#	45547
#	56730
#	72189
#	92598
#	109332
#	123692
#	138026
#	155884
#	168717
#	180801
#	201283
#	212465
#	227923
#	248331
#	265065
#	279422
#	293754
#
# Disc length: 4152
#
# Revision: 1
# Processed by: cddbd v1.5.2PL0 Copyright (c) Steve Scherf et al.
# Submitted via: kJams Pro (development) 1.0patch47.22
#
DISCID=18103614
DTITLE=Alan Jackson - Ps 1635
DYEAR=2007
DGENRE=Country
TTITLE0=Alan Jackson - Vocals - It's Must Be Love
TTITLE1=Alan Jackson - Vocals - It's Alright To Be A Redneck
TTITLE2=Alan Jackson - Vocals - Little Man
TTITLE3=Alan Jackson - Vocals - Meat And Potato Man
TTITLE4=Alan Jackson - Vocals - Monday Morning Church
TTITLE5=Alan Jackson - Vocals - Remember When
TTITLE6=Alan Jackson - Vocals - That'd Be Alright
TTITLE7=Alan Jackson - Vocals - Three Minute Positive Not Too Country Uptempo Love Song
TTITLE8=Alan Jackson - Vocals - Too Much Of A Good Thing
TTITLE9=Alan Jackson - Vocals - Where I Come From
TTITLE10=Alan Jackson - It Must Be Love
TTITLE11=Alan Jackson - It's Alright To Be A Redneck
TTITLE12=Alan Jackson - Little Man
TTITLE13=Alan Jackson - Meat And Potato Man
TTITLE14=Alan Jackson - Monday Morning Church
TTITLE15=Alan Jackson - Remember When
TTITLE16=Alan Jackson - That'd Be Alright
TTITLE17=Alan Jackson - Three Minute Positive Not Too Country Uptempo Love Song
TTITLE18=Alan Jackson - Too Much Of A Good Thing
TTITLE19=Alan Jackson - Where I Come From
EXTD=
EXTT0=
EXTT1=
EXTT2=
EXTT3=
EXTT4=
EXTT5=
EXTT6=
EXTT7=
EXTT8=
EXTT9=
EXTT10=
EXTT11=
EXTT12=
EXTT13=
EXTT14=
EXTT15=
EXTT16=
EXTT17=
EXTT18=
EXTT19=
PLAYORDER=
